<svg width="126" height="126" viewBox="0 0 126 126" fill="none" xmlns="http://www.w3.org/2000/svg">
<path d="M99.1458 92.6861C72.4741 101.375 43.8267 86.762 34.9361 60.1038C27.231 36.6051 37.7021 11.7241 58.4468 0.0734253C53.5075 0.468362 48.5683 1.4557 43.6291 3.03545C10.6352 13.8962 -7.54109 49.243 3.32518 82.4177C14.1914 115.395 49.5562 133.562 82.7477 122.701C105.666 115.197 121.471 95.8456 125.225 73.5316C118.903 82.0228 110.012 88.9342 99.1458 92.6861Z" fill="url(#paint0_radial_12_3440)"/>
<path d="M79.784 114.21C51.3342 123.491 20.5135 107.891 11.2278 79.4557C4.11535 57.5367 11.8205 34.2354 28.6138 20.4127C22.8843 33.4456 21.8965 48.4532 26.6381 62.6709C36.7141 93.8709 70.3008 110.853 101.517 100.782C95.7871 106.904 88.2795 111.446 79.784 114.21Z" fill="url(#paint1_linear_12_3440)"/>
<defs>
<radialGradient id="paint0_radial_12_3440" cx="0" cy="0" r="1" gradientUnits="userSpaceOnUse" gradientTransform="translate(59.5686 63.7802) rotate(-18.0441) scale(61.1352 61.1102)">
<stop stop-color="#FFCA00"/>
<stop offset="0.4146" stop-color="#FFC800"/>
<stop offset="0.6041" stop-color="#FFC000"/>
<stop offset="0.7477" stop-color="#FFB400"/>
<stop offset="0.8682" stop-color="#FEA200"/>
<stop offset="0.9732" stop-color="#FE8A00"/>
<stop offset="1" stop-color="#FE8300"/>
</radialGradient>
<linearGradient id="paint1_linear_12_3440" x1="72.4744" y1="62.6707" x2="16.1875" y2="104.166" gradientUnits="userSpaceOnUse">
<stop stop-color="#FFC801" stop-opacity="0.16"/>
<stop offset="1" stop-color="#FFC801"/>
</linearGradient>
</defs>
</svg>
