<svg width="153" height="144" viewBox="0 0 153 144" fill="none" xmlns="http://www.w3.org/2000/svg">
<path d="M50.8542 38.7595C36.6292 20.7899 63.1034 9.73166 70.8086 20.1975C68.4377 7.75698 92.5411 -1.52404 100.246 15.4582C98.2705 -3.10378 133.833 -7.05314 129.091 20.9874C145.094 8.15192 166.432 35.6 141.736 46.8557C129.091 52.7798 64.2888 55.5443 50.8542 38.7595Z" fill="url(#paint0_linear_12_3352)"/>
<path d="M131.66 25.9241C127.116 35.7975 141.736 40.1418 142.921 32.4406C143.712 28.0963 137.587 25.5292 136.797 30.6634C139.563 27.7013 141.538 34.8102 136.599 32.8355C133.636 31.6507 134.426 27.5039 136.994 26.1216C143.119 22.7646 148.453 31.6507 142.131 37.1798C145.885 36.7849 147.861 33.4279 148.058 30.6634C148.256 26.714 146.082 23.5545 143.119 21.9747C140.353 20.395 134.426 19.6051 131.66 25.9241Z" fill="url(#paint1_linear_12_3352)"/>
<path d="M54.8054 24.7393C50.2614 34.6127 64.8814 38.957 66.0668 31.2557C66.8571 26.9114 60.7325 24.3443 59.9422 29.4785C62.7082 26.5165 64.6839 33.6254 59.7446 31.6507C56.5836 30.4659 57.5714 26.319 60.1398 24.9367C66.2644 21.5798 71.5988 30.4659 65.2766 35.995C69.0304 35.6 71.0061 32.2431 71.2036 29.4785C71.4012 25.5292 69.2279 22.3697 66.2644 20.7899C63.696 19.4076 57.769 18.6178 54.8054 24.7393Z" fill="url(#paint2_linear_12_3352)"/>
<path d="M104.988 10.1266C99.0608 23.357 118.225 29.0836 120.003 18.6177C120.991 12.8912 112.891 9.33672 111.903 16.2481C115.657 12.4962 118.225 21.7772 111.705 19.2101C107.556 17.6304 108.742 12.2987 112.1 10.5215C120.201 5.97976 127.313 17.8279 119.015 25.1342C123.954 24.5418 126.72 20 126.918 16.4456C127.313 11.3114 124.152 7.16458 120.398 4.99242C116.644 3.01774 108.939 1.83293 104.988 10.1266Z" fill="url(#paint3_linear_12_3352)"/>
<path d="M74.9575 15.2608C69.0305 28.4911 88.1946 34.2177 89.9727 23.7519C90.9606 18.0253 82.8603 14.4709 81.8724 21.3823C85.6262 17.6304 88.1946 26.9114 81.6748 24.3443C77.5259 22.7645 78.7113 17.4329 82.07 15.6557C90.1703 11.1139 97.2828 22.962 88.9849 30.2683C93.9241 29.6759 96.6901 25.1342 96.8876 21.5798C97.2828 16.4456 94.1216 12.2987 90.3678 10.1266C86.614 8.1519 78.7113 6.96708 74.9575 15.2608Z" fill="url(#paint4_linear_12_3352)"/>
<path d="M24.1824 49.6203C9.36473 23.9494 57.3738 9.92918 62.3131 43.8937C67.6474 33.6254 86.2188 35.2051 87.7994 50.8051C83.848 24.9368 123.757 26.714 119.805 49.0279C126.918 33.033 160.307 49.0279 141.34 67.5899C125.733 82.795 15.0942 88.5216 2.25225 66.0102C-6.44076 50.6077 13.9088 36.7849 24.1824 49.6203Z" fill="url(#paint5_linear_12_3352)"/>
<path d="M4.22795 57.1241C3.04254 68.7748 20.4286 67.59 18.848 59.0988C18.0578 54.5571 10.5501 54.1621 11.538 59.6912C13.5137 55.7419 18.2553 62.0608 12.1307 61.8634C8.37689 61.8634 7.7842 57.5191 9.95746 55.1495C15.4894 49.4229 24.5775 56.1368 19.6383 64.233C23.5897 62.4558 24.5775 58.1115 23.7872 55.3469C22.6018 51.3975 19.4407 49.2254 16.6748 49.0279C13.1185 48.8305 4.82066 49.8178 4.22795 57.1241Z" fill="url(#paint6_linear_12_3352)"/>
<path d="M64.4863 50.6077C63.3008 62.2583 80.6869 61.0735 79.1063 52.5824C78.3161 48.0406 70.8084 47.6457 71.7963 53.1748C73.772 49.2254 78.5136 55.5444 72.389 55.3469C68.6352 55.3469 68.0425 51.0026 70.2158 48.633C75.7477 42.9064 84.8358 49.6204 79.8966 57.7166C83.848 55.9393 84.8358 51.595 84.0455 48.8305C82.8601 44.8811 79.699 42.7089 76.9331 42.5115C73.5744 42.314 65.2765 43.1039 64.4863 50.6077Z" fill="url(#paint7_linear_12_3352)"/>
<path d="M122.176 52.9772C117.83 63.838 134.821 67.3924 135.808 58.9013C136.401 54.162 129.091 51.9899 128.498 57.3215C131.462 53.9646 134.426 61.4684 128.498 59.6912C124.942 58.5064 125.535 54.1621 128.301 52.5823C135.216 48.4355 142.131 57.519 135.216 63.838C139.562 63.0481 141.538 59.2962 141.538 56.3342C141.538 52.1874 138.574 49.0279 135.216 47.6456C131.857 46.6583 124.942 46.0658 122.176 52.9772Z" fill="url(#paint8_linear_12_3352)"/>
<path d="M92.7387 45.0785C91.3557 58.5064 111.31 57.1241 109.532 47.4481C108.544 42.1165 99.8512 41.919 101.037 48.0406C103.407 43.4988 108.742 50.8051 101.827 50.6076C97.4803 50.6076 96.8876 45.4735 99.456 42.9064C105.778 36.1925 116.249 44.0912 110.52 53.1747C115.064 51.0026 116.052 46.0659 115.261 42.9064C113.878 38.3646 110.322 35.7975 107.161 35.7975C103.012 35.6001 93.7265 36.5874 92.7387 45.0785Z" fill="url(#paint9_linear_12_3352)"/>
<path d="M26.1582 39.9444C24.3801 57.7166 50.6567 55.7419 48.2859 43.1039C47.1004 36.1925 35.6415 35.7976 37.222 43.8938C40.1855 37.7723 47.4956 47.4482 38.2099 47.2507C32.4804 47.2507 31.6901 40.5368 35.0488 36.9824C43.3466 28.2938 57.1764 38.5621 49.6688 50.6077C55.5959 47.8431 56.9789 41.3267 55.7935 37.1798C54.0153 31.2558 49.2737 27.8988 45.1247 27.7014C39.7904 27.5039 27.3436 28.6887 26.1582 39.9444Z" fill="url(#paint10_linear_12_3352)"/>
<path d="M60.5351 109.651C59.5472 112.415 56.5837 113.995 53.8178 113.205C51.0518 112.218 49.4713 109.256 50.2615 106.491C51.2494 103.727 59.9424 90.2988 60.9302 90.6937C61.9181 90.8912 61.3254 106.886 60.5351 109.651Z" fill="url(#paint11_linear_12_3352)"/>
<path d="M58.757 109.256C58.1643 111.23 55.991 112.415 54.0153 111.625C52.0396 111.033 50.8542 108.861 51.6445 106.886C52.2372 104.911 55.3983 100.567 57.374 101.16C59.3497 101.949 59.3497 107.281 58.757 109.256Z" fill="url(#paint12_linear_12_3352)"/>
<path d="M79.8965 139.863C79.3038 142.825 76.3403 144.603 73.3767 143.813C70.4132 143.22 68.6351 140.258 69.2278 137.296C69.8205 134.334 77.5257 120.511 78.7111 120.709C79.8965 121.104 80.6868 136.901 79.8965 139.863Z" fill="url(#paint13_linear_12_3352)"/>
<path d="M78.1184 139.468C77.7233 141.443 75.55 142.825 73.5743 142.233C71.5987 141.838 70.2157 139.666 70.8084 137.691C71.2035 135.716 73.9695 130.977 76.1427 131.57C78.1184 132.162 78.7111 137.494 78.1184 139.468Z" fill="url(#paint14_linear_12_3352)"/>
<path d="M101.827 109.651C100.839 112.415 97.8753 113.995 95.1093 113.205C92.3433 112.218 90.7628 109.256 91.553 106.491C92.5409 103.727 101.234 90.2988 102.222 90.6937C103.21 90.8912 102.814 106.886 101.827 109.651Z" fill="url(#paint15_linear_12_3352)"/>
<path d="M100.048 109.256C99.4558 111.23 97.2825 112.415 95.3068 111.625C93.3311 111.033 92.1457 108.861 92.936 106.886C93.5287 104.911 96.6898 100.567 98.6655 101.16C100.641 101.949 100.641 107.281 100.048 109.256Z" fill="url(#paint16_linear_12_3352)"/>
<path d="M76.9332 109.453C76.3404 109.453 75.9453 109.058 75.9453 108.466V93.0633C75.9453 92.4709 76.3404 92.0759 76.9332 92.0759C77.5259 92.0759 77.921 92.4709 77.921 93.0633V108.466C77.921 108.861 77.5259 109.453 76.9332 109.453Z" fill="url(#paint17_linear_12_3352)"/>
<path d="M84.4407 101.752H69.0303C68.4376 101.752 68.0425 101.357 68.0425 100.765C68.0425 100.172 68.4376 99.7772 69.0303 99.7772H84.4407C85.0334 99.7772 85.4285 100.172 85.4285 100.765C85.6261 101.16 85.0334 101.752 84.4407 101.752Z" fill="url(#paint18_linear_12_3352)"/>
<path d="M71.4011 107.084C71.2035 107.084 70.8084 106.886 70.6108 106.689C70.2157 106.294 70.2157 105.701 70.6108 105.109L81.4771 94.2481C81.8722 93.8532 82.4649 93.8532 83.0576 94.2481C83.4528 94.643 83.4528 95.2354 83.0576 95.8278L72.1914 106.689C71.9938 107.084 71.5986 107.084 71.4011 107.084Z" fill="url(#paint19_linear_12_3352)"/>
<path d="M82.2673 107.084C82.0698 107.084 81.6746 106.886 81.4771 106.689L70.6108 95.8278C70.2157 95.4329 70.2157 94.8405 70.6108 94.2481C71.0059 93.8532 71.5987 93.8532 72.1914 94.2481L83.0576 105.109C83.4528 105.504 83.4528 106.096 83.0576 106.689C82.8601 107.084 82.4649 107.084 82.2673 107.084Z" fill="url(#paint20_linear_12_3352)"/>
<path d="M117.83 109.453C117.237 109.453 116.842 109.058 116.842 108.466V93.0633C116.842 92.4709 117.237 92.0759 117.83 92.0759C118.422 92.0759 118.817 92.4709 118.817 93.0633V108.466C119.015 108.861 118.422 109.453 117.83 109.453Z" fill="url(#paint21_linear_12_3352)"/>
<path d="M125.535 101.752H110.125C109.532 101.752 109.137 101.357 109.137 100.765C109.137 100.172 109.532 99.7772 110.125 99.7772H125.535C126.128 99.7772 126.523 100.172 126.523 100.765C126.523 101.16 126.128 101.752 125.535 101.752Z" fill="url(#paint22_linear_12_3352)"/>
<path d="M112.495 107.084C112.298 107.084 111.903 106.886 111.705 106.689C111.31 106.294 111.31 105.701 111.705 105.109L122.571 94.2481C122.966 93.8532 123.559 93.8532 124.152 94.2481C124.547 94.643 124.547 95.2354 124.152 95.8278L113.286 106.689C112.89 107.084 112.693 107.084 112.495 107.084Z" fill="url(#paint23_linear_12_3352)"/>
<path d="M123.362 107.084C123.164 107.084 122.769 106.886 122.571 106.689L111.705 95.8278C111.31 95.4329 111.31 94.8405 111.705 94.2481C112.1 93.8532 112.693 93.8532 113.286 94.2481L124.152 105.109C124.547 105.504 124.547 106.096 124.152 106.689C123.757 107.084 123.559 107.084 123.362 107.084Z" fill="url(#paint24_linear_12_3352)"/>
<path d="M36.2339 109.453C35.6412 109.453 35.2461 109.058 35.2461 108.466V93.0633C35.2461 92.4709 35.6412 92.0759 36.2339 92.0759C36.8266 92.0759 37.2218 92.4709 37.2218 93.0633V108.466C37.2218 108.861 36.8266 109.453 36.2339 109.453Z" fill="url(#paint25_linear_12_3352)"/>
<path d="M43.9392 101.752H28.5289C27.9362 101.752 27.541 101.357 27.541 100.765C27.541 100.172 27.9362 99.7772 28.5289 99.7772H43.9392C44.5319 99.7772 44.927 100.172 44.927 100.765C44.927 101.16 44.5319 101.752 43.9392 101.752Z" fill="url(#paint26_linear_12_3352)"/>
<path d="M30.7024 107.084C30.5048 107.084 30.1096 106.886 29.9121 106.689C29.5169 106.294 29.5169 105.701 29.9121 105.109L40.7783 94.2481C41.1735 93.8532 41.7662 93.8532 42.3589 94.2481C42.754 94.643 42.754 95.2354 42.3589 95.8278L31.4926 106.689C31.2951 107.084 31.0975 107.084 30.7024 107.084Z" fill="url(#paint27_linear_12_3352)"/>
<path d="M41.5686 107.084C41.3711 107.084 40.9759 106.886 40.7783 106.689L29.9121 95.8278C29.5169 95.4329 29.5169 94.8405 29.9121 94.2481C30.3072 93.8532 30.8999 93.8532 31.4926 94.2481L42.3589 105.109C42.754 105.504 42.754 106.096 42.3589 106.689C42.1613 107.084 41.9638 107.084 41.5686 107.084Z" fill="url(#paint28_linear_12_3352)"/>
<path d="M49.2735 139.271C48.6808 139.271 48.2856 138.876 48.2856 138.284V122.881C48.2856 122.289 48.6808 121.894 49.2735 121.894C49.8662 121.894 50.2613 122.289 50.2613 122.881V138.284C50.4589 138.876 49.8662 139.271 49.2735 139.271Z" fill="url(#paint29_linear_12_3352)"/>
<path d="M56.9787 131.57H41.5684C40.9757 131.57 40.5806 131.175 40.5806 130.582C40.5806 129.99 40.9757 129.595 41.5684 129.595H56.9787C57.5714 129.595 57.9666 129.99 57.9666 130.582C57.9666 131.175 57.5714 131.57 56.9787 131.57Z" fill="url(#paint30_linear_12_3352)"/>
<path d="M43.9392 137.099C43.7416 137.099 43.3465 136.901 43.1489 136.704C42.7538 136.309 42.7538 135.716 43.1489 135.124L54.0152 124.263C54.4103 123.868 55.003 123.868 55.5957 124.263C55.9908 124.658 55.9908 125.251 55.5957 125.843L44.7294 136.704C44.5319 136.901 44.1368 137.099 43.9392 137.099Z" fill="url(#paint31_linear_12_3352)"/>
<path d="M54.8054 137.099C54.6079 137.099 54.2127 136.901 54.0152 136.704L43.1489 125.843C42.7538 125.448 42.7538 124.658 43.1489 124.263C43.544 123.868 44.1367 123.868 44.7294 124.263L55.5957 135.124C55.9908 135.519 55.9908 136.111 55.5957 136.704C55.3981 136.901 55.003 137.099 54.8054 137.099Z" fill="url(#paint32_linear_12_3352)"/>
<path d="M99.6534 139.271C99.0607 139.271 98.6655 138.876 98.6655 138.284V122.881C98.6655 122.289 99.0607 121.894 99.6534 121.894C100.246 121.894 100.641 122.289 100.641 122.881V138.284C100.641 138.876 100.246 139.271 99.6534 139.271Z" fill="url(#paint33_linear_12_3352)"/>
<path d="M107.359 131.57H91.9483C91.3556 131.57 90.9604 131.175 90.9604 130.582C90.9604 129.99 91.3556 129.595 91.9483 129.595H107.359C107.951 129.595 108.346 129.99 108.346 130.582C108.346 131.175 107.951 131.57 107.359 131.57Z" fill="url(#paint34_linear_12_3352)"/>
<path d="M94.1213 137.099C93.9238 137.099 93.5286 136.901 93.331 136.704C92.9359 136.309 92.9359 135.716 93.331 135.124L104.197 124.263C104.592 123.868 105.185 123.868 105.778 124.263C106.173 124.658 106.173 125.251 105.778 125.843L94.9116 136.704C94.714 136.901 94.5165 137.099 94.1213 137.099Z" fill="url(#paint35_linear_12_3352)"/>
<path d="M104.988 137.099C104.79 137.099 104.395 136.901 104.197 136.704L93.331 125.843C92.9359 125.448 92.9359 124.658 93.331 124.263C93.7262 123.868 94.3189 123.868 94.9116 124.263L105.778 135.124C106.173 135.519 106.173 136.111 105.778 136.704C105.58 136.901 105.383 137.099 104.988 137.099Z" fill="url(#paint36_linear_12_3352)"/>
<defs>
<linearGradient id="paint0_linear_12_3352" x1="101.374" y1="10.2441" x2="98.855" y2="45.4474" gradientUnits="userSpaceOnUse">
<stop stop-color="#C7F6FF"/>
<stop offset="0.1871" stop-color="#C3F4FF"/>
<stop offset="0.3738" stop-color="#B7EDFF"/>
<stop offset="0.5603" stop-color="#A3E2FF"/>
<stop offset="0.7469" stop-color="#87D2FF"/>
<stop offset="0.9318" stop-color="#63BEFF"/>
<stop offset="1" stop-color="#54B5FF"/>
</linearGradient>
<linearGradient id="paint1_linear_12_3352" x1="142.408" y1="21.7542" x2="137.691" y2="34.9702" gradientUnits="userSpaceOnUse">
<stop stop-color="white" stop-opacity="0.11"/>
<stop offset="1" stop-color="white"/>
</linearGradient>
<linearGradient id="paint2_linear_12_3352" x1="65.5536" y1="20.7022" x2="60.9087" y2="33.8298" gradientUnits="userSpaceOnUse">
<stop stop-color="white" stop-opacity="0.11"/>
<stop offset="1" stop-color="white"/>
</linearGradient>
<linearGradient id="paint3_linear_12_3352" x1="119.384" y1="4.73775" x2="113.199" y2="22.2541" gradientUnits="userSpaceOnUse">
<stop stop-color="white" stop-opacity="0.11"/>
<stop offset="1" stop-color="white"/>
</linearGradient>
<linearGradient id="paint4_linear_12_3352" x1="89.354" y1="9.8719" x2="83.1684" y2="27.3883" gradientUnits="userSpaceOnUse">
<stop stop-color="white" stop-opacity="0.11"/>
<stop offset="1" stop-color="white"/>
</linearGradient>
<linearGradient id="paint5_linear_12_3352" x1="73.7238" y1="34.931" x2="73.7238" y2="81.4917" gradientUnits="userSpaceOnUse">
<stop stop-color="#99E8FF"/>
<stop offset="0.2786" stop-color="#96E6FF"/>
<stop offset="0.4778" stop-color="#8DE0FF"/>
<stop offset="0.6522" stop-color="#7DD5FF"/>
<stop offset="0.8123" stop-color="#67C6FF"/>
<stop offset="0.9614" stop-color="#4BB3FF"/>
<stop offset="1" stop-color="#42ADFF"/>
</linearGradient>
<linearGradient id="paint6_linear_12_3352" x1="17.5294" y1="49.9169" x2="13.1471" y2="63.7411" gradientUnits="userSpaceOnUse">
<stop stop-color="white" stop-opacity="0.11"/>
<stop offset="1" stop-color="white"/>
</linearGradient>
<linearGradient id="paint7_linear_12_3352" x1="77.7877" y1="43.3975" x2="73.4039" y2="57.2238" gradientUnits="userSpaceOnUse">
<stop stop-color="white" stop-opacity="0.11"/>
<stop offset="1" stop-color="white"/>
</linearGradient>
<linearGradient id="paint8_linear_12_3352" x1="134.962" y1="47.9701" x2="130.557" y2="61.9042" gradientUnits="userSpaceOnUse">
<stop stop-color="white" stop-opacity="0.11"/>
<stop offset="1" stop-color="white"/>
</linearGradient>
<linearGradient id="paint9_linear_12_3352" x1="108.026" y1="36.8233" x2="102.987" y2="52.7159" gradientUnits="userSpaceOnUse">
<stop stop-color="white" stop-opacity="0.11"/>
<stop offset="1" stop-color="white"/>
</linearGradient>
<linearGradient id="paint10_linear_12_3352" x1="46.3174" y1="29.0636" x2="39.6766" y2="50.0131" gradientUnits="userSpaceOnUse">
<stop stop-color="white" stop-opacity="0.11"/>
<stop offset="1" stop-color="white"/>
</linearGradient>
<linearGradient id="paint11_linear_12_3352" x1="60.804" y1="90.8878" x2="54.0779" y2="112.061" gradientUnits="userSpaceOnUse">
<stop stop-color="#99E8FF"/>
<stop offset="0.2786" stop-color="#96E6FF"/>
<stop offset="0.4778" stop-color="#8DE0FF"/>
<stop offset="0.6522" stop-color="#7DD5FF"/>
<stop offset="0.8123" stop-color="#67C6FF"/>
<stop offset="0.9614" stop-color="#4BB3FF"/>
<stop offset="1" stop-color="#42ADFF"/>
</linearGradient>
<linearGradient id="paint12_linear_12_3352" x1="56.5778" y1="101.693" x2="52.517" y2="109.38" gradientUnits="userSpaceOnUse">
<stop stop-color="white" stop-opacity="0.11"/>
<stop offset="1" stop-color="white"/>
</linearGradient>
<linearGradient id="paint13_linear_12_3352" x1="78.7228" y1="121.101" x2="73.7249" y2="142.744" gradientUnits="userSpaceOnUse">
<stop stop-color="#99E8FF"/>
<stop offset="0.2786" stop-color="#96E6FF"/>
<stop offset="0.4778" stop-color="#8DE0FF"/>
<stop offset="0.6522" stop-color="#7DD5FF"/>
<stop offset="0.8123" stop-color="#67C6FF"/>
<stop offset="0.9614" stop-color="#4BB3FF"/>
<stop offset="1" stop-color="#42ADFF"/>
</linearGradient>
<linearGradient id="paint14_linear_12_3352" x1="75.8256" y1="132.112" x2="71.7039" y2="139.816" gradientUnits="userSpaceOnUse">
<stop stop-color="white" stop-opacity="0.11"/>
<stop offset="1" stop-color="white"/>
</linearGradient>
<linearGradient id="paint15_linear_12_3352" x1="102.124" y1="90.8882" x2="95.398" y2="112.061" gradientUnits="userSpaceOnUse">
<stop stop-color="#99E8FF"/>
<stop offset="0.2786" stop-color="#96E6FF"/>
<stop offset="0.4778" stop-color="#8DE0FF"/>
<stop offset="0.6522" stop-color="#7DD5FF"/>
<stop offset="0.8123" stop-color="#67C6FF"/>
<stop offset="0.9614" stop-color="#4BB3FF"/>
<stop offset="1" stop-color="#42ADFF"/>
</linearGradient>
<linearGradient id="paint16_linear_12_3352" x1="97.8693" y1="101.693" x2="93.8085" y2="109.38" gradientUnits="userSpaceOnUse">
<stop stop-color="white" stop-opacity="0.11"/>
<stop offset="1" stop-color="white"/>
</linearGradient>
<linearGradient id="paint17_linear_12_3352" x1="76.8472" y1="91.5325" x2="76.8472" y2="109.402" gradientUnits="userSpaceOnUse">
<stop stop-color="#99E8FF"/>
<stop offset="0.2786" stop-color="#96E6FF"/>
<stop offset="0.4778" stop-color="#8DE0FF"/>
<stop offset="0.6522" stop-color="#7DD5FF"/>
<stop offset="0.8123" stop-color="#67C6FF"/>
<stop offset="0.9614" stop-color="#4BB3FF"/>
<stop offset="1" stop-color="#42ADFF"/>
</linearGradient>
<linearGradient id="paint18_linear_12_3352" x1="76.8463" y1="91.528" x2="76.8463" y2="109.405" gradientUnits="userSpaceOnUse">
<stop stop-color="#99E8FF"/>
<stop offset="0.2786" stop-color="#96E6FF"/>
<stop offset="0.4778" stop-color="#8DE0FF"/>
<stop offset="0.6522" stop-color="#7DD5FF"/>
<stop offset="0.8123" stop-color="#67C6FF"/>
<stop offset="0.9614" stop-color="#4BB3FF"/>
<stop offset="1" stop-color="#42ADFF"/>
</linearGradient>
<linearGradient id="paint19_linear_12_3352" x1="76.848" y1="91.5315" x2="76.848" y2="109.403" gradientUnits="userSpaceOnUse">
<stop stop-color="#99E8FF"/>
<stop offset="0.2786" stop-color="#96E6FF"/>
<stop offset="0.4778" stop-color="#8DE0FF"/>
<stop offset="0.6522" stop-color="#7DD5FF"/>
<stop offset="0.8123" stop-color="#67C6FF"/>
<stop offset="0.9614" stop-color="#4BB3FF"/>
<stop offset="1" stop-color="#42ADFF"/>
</linearGradient>
<linearGradient id="paint20_linear_12_3352" x1="76.848" y1="91.5315" x2="76.848" y2="109.403" gradientUnits="userSpaceOnUse">
<stop stop-color="#99E8FF"/>
<stop offset="0.2786" stop-color="#96E6FF"/>
<stop offset="0.4778" stop-color="#8DE0FF"/>
<stop offset="0.6522" stop-color="#7DD5FF"/>
<stop offset="0.8123" stop-color="#67C6FF"/>
<stop offset="0.9614" stop-color="#4BB3FF"/>
<stop offset="1" stop-color="#42ADFF"/>
</linearGradient>
<linearGradient id="paint21_linear_12_3352" x1="117.875" y1="91.5325" x2="117.875" y2="109.402" gradientUnits="userSpaceOnUse">
<stop stop-color="#99E8FF"/>
<stop offset="0.2786" stop-color="#96E6FF"/>
<stop offset="0.4778" stop-color="#8DE0FF"/>
<stop offset="0.6522" stop-color="#7DD5FF"/>
<stop offset="0.8123" stop-color="#67C6FF"/>
<stop offset="0.9614" stop-color="#4BB3FF"/>
<stop offset="1" stop-color="#42ADFF"/>
</linearGradient>
<linearGradient id="paint22_linear_12_3352" x1="117.875" y1="91.528" x2="117.875" y2="109.405" gradientUnits="userSpaceOnUse">
<stop stop-color="#99E8FF"/>
<stop offset="0.2786" stop-color="#96E6FF"/>
<stop offset="0.4778" stop-color="#8DE0FF"/>
<stop offset="0.6522" stop-color="#7DD5FF"/>
<stop offset="0.8123" stop-color="#67C6FF"/>
<stop offset="0.9614" stop-color="#4BB3FF"/>
<stop offset="1" stop-color="#42ADFF"/>
</linearGradient>
<linearGradient id="paint23_linear_12_3352" x1="117.875" y1="91.5315" x2="117.875" y2="109.403" gradientUnits="userSpaceOnUse">
<stop stop-color="#99E8FF"/>
<stop offset="0.2786" stop-color="#96E6FF"/>
<stop offset="0.4778" stop-color="#8DE0FF"/>
<stop offset="0.6522" stop-color="#7DD5FF"/>
<stop offset="0.8123" stop-color="#67C6FF"/>
<stop offset="0.9614" stop-color="#4BB3FF"/>
<stop offset="1" stop-color="#42ADFF"/>
</linearGradient>
<linearGradient id="paint24_linear_12_3352" x1="117.875" y1="91.5315" x2="117.875" y2="109.403" gradientUnits="userSpaceOnUse">
<stop stop-color="#99E8FF"/>
<stop offset="0.2786" stop-color="#96E6FF"/>
<stop offset="0.4778" stop-color="#8DE0FF"/>
<stop offset="0.6522" stop-color="#7DD5FF"/>
<stop offset="0.8123" stop-color="#67C6FF"/>
<stop offset="0.9614" stop-color="#4BB3FF"/>
<stop offset="1" stop-color="#42ADFF"/>
</linearGradient>
<linearGradient id="paint25_linear_12_3352" x1="36.2347" y1="91.5325" x2="36.2347" y2="109.402" gradientUnits="userSpaceOnUse">
<stop stop-color="#99E8FF"/>
<stop offset="0.2786" stop-color="#96E6FF"/>
<stop offset="0.4778" stop-color="#8DE0FF"/>
<stop offset="0.6522" stop-color="#7DD5FF"/>
<stop offset="0.8123" stop-color="#67C6FF"/>
<stop offset="0.9614" stop-color="#4BB3FF"/>
<stop offset="1" stop-color="#42ADFF"/>
</linearGradient>
<linearGradient id="paint26_linear_12_3352" x1="36.2348" y1="91.528" x2="36.2348" y2="109.405" gradientUnits="userSpaceOnUse">
<stop stop-color="#99E8FF"/>
<stop offset="0.2786" stop-color="#96E6FF"/>
<stop offset="0.4778" stop-color="#8DE0FF"/>
<stop offset="0.6522" stop-color="#7DD5FF"/>
<stop offset="0.8123" stop-color="#67C6FF"/>
<stop offset="0.9614" stop-color="#4BB3FF"/>
<stop offset="1" stop-color="#42ADFF"/>
</linearGradient>
<linearGradient id="paint27_linear_12_3352" x1="36.2349" y1="91.5315" x2="36.2349" y2="109.403" gradientUnits="userSpaceOnUse">
<stop stop-color="#99E8FF"/>
<stop offset="0.2786" stop-color="#96E6FF"/>
<stop offset="0.4778" stop-color="#8DE0FF"/>
<stop offset="0.6522" stop-color="#7DD5FF"/>
<stop offset="0.8123" stop-color="#67C6FF"/>
<stop offset="0.9614" stop-color="#4BB3FF"/>
<stop offset="1" stop-color="#42ADFF"/>
</linearGradient>
<linearGradient id="paint28_linear_12_3352" x1="36.2349" y1="91.5315" x2="36.2349" y2="109.403" gradientUnits="userSpaceOnUse">
<stop stop-color="#99E8FF"/>
<stop offset="0.2786" stop-color="#96E6FF"/>
<stop offset="0.4778" stop-color="#8DE0FF"/>
<stop offset="0.6522" stop-color="#7DD5FF"/>
<stop offset="0.8123" stop-color="#67C6FF"/>
<stop offset="0.9614" stop-color="#4BB3FF"/>
<stop offset="1" stop-color="#42ADFF"/>
</linearGradient>
<linearGradient id="paint29_linear_12_3352" x1="49.3314" y1="121.511" x2="49.3314" y2="139.382" gradientUnits="userSpaceOnUse">
<stop stop-color="#99E8FF"/>
<stop offset="0.2786" stop-color="#96E6FF"/>
<stop offset="0.4778" stop-color="#8DE0FF"/>
<stop offset="0.6522" stop-color="#7DD5FF"/>
<stop offset="0.8123" stop-color="#67C6FF"/>
<stop offset="0.9614" stop-color="#4BB3FF"/>
<stop offset="1" stop-color="#42ADFF"/>
</linearGradient>
<linearGradient id="paint30_linear_12_3352" x1="49.3332" y1="121.52" x2="49.3332" y2="139.372" gradientUnits="userSpaceOnUse">
<stop stop-color="#99E8FF"/>
<stop offset="0.2786" stop-color="#96E6FF"/>
<stop offset="0.4778" stop-color="#8DE0FF"/>
<stop offset="0.6522" stop-color="#7DD5FF"/>
<stop offset="0.8123" stop-color="#67C6FF"/>
<stop offset="0.9614" stop-color="#4BB3FF"/>
<stop offset="1" stop-color="#42ADFF"/>
</linearGradient>
<linearGradient id="paint31_linear_12_3352" x1="49.3314" y1="121.511" x2="49.3314" y2="139.38" gradientUnits="userSpaceOnUse">
<stop stop-color="#99E8FF"/>
<stop offset="0.2786" stop-color="#96E6FF"/>
<stop offset="0.4778" stop-color="#8DE0FF"/>
<stop offset="0.6522" stop-color="#7DD5FF"/>
<stop offset="0.8123" stop-color="#67C6FF"/>
<stop offset="0.9614" stop-color="#4BB3FF"/>
<stop offset="1" stop-color="#42ADFF"/>
</linearGradient>
<linearGradient id="paint32_linear_12_3352" x1="49.3314" y1="121.511" x2="49.3314" y2="139.38" gradientUnits="userSpaceOnUse">
<stop stop-color="#99E8FF"/>
<stop offset="0.2786" stop-color="#96E6FF"/>
<stop offset="0.4778" stop-color="#8DE0FF"/>
<stop offset="0.6522" stop-color="#7DD5FF"/>
<stop offset="0.8123" stop-color="#67C6FF"/>
<stop offset="0.9614" stop-color="#4BB3FF"/>
<stop offset="1" stop-color="#42ADFF"/>
</linearGradient>
<linearGradient id="paint33_linear_12_3352" x1="99.6467" y1="121.511" x2="99.6467" y2="139.382" gradientUnits="userSpaceOnUse">
<stop stop-color="#99E8FF"/>
<stop offset="0.2786" stop-color="#96E6FF"/>
<stop offset="0.4778" stop-color="#8DE0FF"/>
<stop offset="0.6522" stop-color="#7DD5FF"/>
<stop offset="0.8123" stop-color="#67C6FF"/>
<stop offset="0.9614" stop-color="#4BB3FF"/>
<stop offset="1" stop-color="#42ADFF"/>
</linearGradient>
<linearGradient id="paint34_linear_12_3352" x1="99.6467" y1="121.52" x2="99.6467" y2="139.372" gradientUnits="userSpaceOnUse">
<stop stop-color="#99E8FF"/>
<stop offset="0.2786" stop-color="#96E6FF"/>
<stop offset="0.4778" stop-color="#8DE0FF"/>
<stop offset="0.6522" stop-color="#7DD5FF"/>
<stop offset="0.8123" stop-color="#67C6FF"/>
<stop offset="0.9614" stop-color="#4BB3FF"/>
<stop offset="1" stop-color="#42ADFF"/>
</linearGradient>
<linearGradient id="paint35_linear_12_3352" x1="99.6467" y1="121.511" x2="99.6467" y2="139.38" gradientUnits="userSpaceOnUse">
<stop stop-color="#99E8FF"/>
<stop offset="0.2786" stop-color="#96E6FF"/>
<stop offset="0.4778" stop-color="#8DE0FF"/>
<stop offset="0.6522" stop-color="#7DD5FF"/>
<stop offset="0.8123" stop-color="#67C6FF"/>
<stop offset="0.9614" stop-color="#4BB3FF"/>
<stop offset="1" stop-color="#42ADFF"/>
</linearGradient>
<linearGradient id="paint36_linear_12_3352" x1="99.6467" y1="121.511" x2="99.6467" y2="139.38" gradientUnits="userSpaceOnUse">
<stop stop-color="#99E8FF"/>
<stop offset="0.2786" stop-color="#96E6FF"/>
<stop offset="0.4778" stop-color="#8DE0FF"/>
<stop offset="0.6522" stop-color="#7DD5FF"/>
<stop offset="0.8123" stop-color="#67C6FF"/>
<stop offset="0.9614" stop-color="#4BB3FF"/>
<stop offset="1" stop-color="#42ADFF"/>
</linearGradient>
</defs>
</svg>
