<svg width="140" height="159" viewBox="0 0 140 159" fill="none" xmlns="http://www.w3.org/2000/svg">
<path d="M46.7812 130C45.7934 132.962 42.8299 134.542 39.8664 133.554C36.9028 132.567 35.3223 129.605 36.3101 126.643C37.298 123.681 46.1885 110.056 47.1764 110.451C48.1642 110.648 47.5715 127.038 46.7812 130Z" fill="url(#paint0_linear_12_3459)"/>
<path d="M45.0032 129.605C44.4105 131.58 42.2372 132.765 40.2615 132.172C38.2858 131.58 37.1004 129.408 37.6931 127.433C38.2858 125.458 41.6445 120.916 43.6202 121.509C45.5959 121.904 45.5959 127.433 45.0032 129.605Z" fill="url(#paint1_linear_12_3459)"/>
<path d="M54.4863 154.486C53.6961 157.053 50.7325 158.633 48.1641 157.843C45.3982 157.053 44.0152 154.091 44.8055 151.524C45.5958 148.759 53.8936 136.319 54.8815 136.714C55.8693 136.911 55.4742 151.722 54.4863 154.486Z" fill="url(#paint2_linear_12_3459)"/>
<path d="M52.9057 154.091C52.313 155.868 50.3373 157.053 48.5592 156.461C46.7811 155.868 45.5957 153.894 46.1884 152.116C46.7811 150.339 49.7446 146.192 51.5227 146.785C53.4984 147.18 53.4984 152.314 52.9057 154.091Z" fill="url(#paint3_linear_12_3459)"/>
<path d="M83.3315 154.486C82.5413 157.053 79.5778 158.633 77.0094 157.843C74.2434 157.053 72.8604 154.091 73.6507 151.524C74.441 148.759 82.7389 136.319 83.7267 136.714C84.7145 136.911 84.1218 151.722 83.3315 154.486Z" fill="url(#paint4_linear_12_3459)"/>
<path d="M81.7509 154.091C81.1582 155.868 79.1825 157.053 77.4044 156.461C75.6263 155.868 74.4409 153.894 75.0336 152.116C75.6263 150.339 78.5898 146.192 80.3679 146.785C82.146 147.18 82.3436 152.314 81.7509 154.091Z" fill="url(#paint5_linear_12_3459)"/>
<path d="M74.0454 129.21C73.2552 131.975 70.2916 133.357 67.7232 132.567C64.9573 131.777 63.5743 128.815 64.3646 126.248C65.1548 123.681 73.4527 111.043 74.4406 111.438C75.4284 111.438 75.0333 126.446 74.0454 129.21Z" fill="url(#paint6_linear_12_3459)"/>
<path d="M72.4648 128.815C71.8721 130.592 69.8964 131.777 68.1183 131.185C66.3402 130.592 65.1547 128.618 65.7474 126.84C66.3401 125.063 69.3037 120.916 71.0818 121.509C73.0575 121.904 73.0575 126.84 72.4648 128.815Z" fill="url(#paint7_linear_12_3459)"/>
<path d="M100.915 129.21C100.125 131.975 97.1613 133.357 94.5929 132.567C91.8269 131.777 90.4439 128.815 91.2342 126.248C92.0245 123.681 100.322 111.043 101.31 111.438C102.298 111.438 101.705 126.446 100.915 129.21Z" fill="url(#paint8_linear_12_3459)"/>
<path d="M99.3344 128.815C98.7417 130.592 96.766 131.777 94.9879 131.185C93.2098 130.592 92.0244 128.618 92.6171 126.84C93.2098 125.063 96.1733 120.916 97.9514 121.509C99.7296 121.904 99.9271 126.84 99.3344 128.815Z" fill="url(#paint9_linear_12_3459)"/>
<path d="M96.3707 76.0911C74.6382 83.2 51.1276 71.3519 44.2127 49.6304C37.8905 30.4759 46.3859 10.1367 63.3768 0.658203C59.4255 1.05314 55.2765 1.64554 51.1276 3.02782C24.2583 11.7164 9.44064 40.7443 18.3312 67.6C27.0242 94.4557 56.0668 109.266 82.9361 100.38C101.705 94.2582 114.349 78.4607 117.511 60.2936C112.571 67.6 105.261 73.1291 96.3707 76.0911Z" fill="url(#paint10_radial_12_3459)"/>
<path d="M80.7628 93.8633C57.6473 101.367 32.5561 88.7291 25.0485 65.4278C19.1215 47.4582 25.4436 28.5012 39.2734 17.443C34.7293 28.1063 33.7415 40.1518 37.4953 51.8025C45.7932 77.0784 73.0576 91.0987 98.5439 82.805C93.6047 87.7417 87.6777 91.4937 80.7628 93.8633Z" fill="url(#paint11_linear_12_3459)"/>
<path d="M28.2098 72.3392C10.8238 41.3367 77.7995 27.3164 71.2797 71.5493C74.0457 56.9367 101.113 55.7519 102.891 73.524C101.113 48.643 156.827 54.7645 134.106 90.3088C123.24 107.489 15.3679 111.043 3.71133 91.6911C-7.55007 73.7215 16.1581 56.9367 28.2098 72.3392Z" fill="url(#paint12_linear_12_3459)"/>
<path d="M4.69933 81.4227C3.31635 95.6405 23.6659 94.0607 21.8878 83.9898C20.8999 78.4607 12.0094 78.0658 13.1948 84.5822C15.5656 79.6455 21.0975 87.3468 13.985 87.3468C9.63853 87.3468 8.84825 82.0151 11.4166 79.0531C17.7388 71.9443 28.4075 80.238 22.8756 89.9139C27.4197 87.7418 28.6051 82.4101 27.6173 79.0531C26.2343 74.3139 22.678 71.5493 19.3194 71.5493C15.1704 71.5493 5.4896 72.5367 4.69933 81.4227Z" fill="url(#paint13_linear_12_3459)"/>
<path d="M75.2311 73.524C73.8481 87.7417 94.1976 86.162 92.4195 75.8936C91.4317 70.3645 82.5411 69.9696 83.7265 76.486C86.0973 71.5493 91.6292 79.4481 84.5168 79.2506C80.1703 79.2506 79.38 73.919 81.9484 70.9569C88.2706 63.8481 98.9393 72.1417 93.4074 81.8177C97.9514 79.6455 99.1368 74.3139 98.149 70.9569C96.766 66.2177 93.2098 63.4531 89.8511 63.4531C85.8998 63.4531 76.2189 64.4404 75.2311 73.524Z" fill="url(#paint14_linear_12_3459)"/>
<path d="M106.249 73.919C104.669 90.3089 127.982 88.5316 126.006 76.6835C125.018 70.3645 114.745 69.9696 116.128 77.4734C118.696 71.9443 125.216 80.8304 117.116 80.6329C111.979 80.6329 111.189 74.5114 114.152 71.1544C121.462 63.0582 133.711 72.5367 127.192 83.5949C132.526 81.0278 133.711 75.1038 132.723 71.1544C131.143 65.6253 126.994 62.6633 123.24 62.4658C118.499 62.4658 107.435 63.6506 106.249 73.919Z" fill="url(#paint15_linear_12_3459)"/>
<path d="M30.383 60.4911C28.2097 82.0152 58.8328 79.6455 56.462 64.243C55.079 55.7519 41.6444 55.3569 43.4225 65.2304C46.9787 57.924 55.2766 69.5747 44.6079 69.3772C37.8906 69.1797 36.9028 61.281 40.8541 56.9367C50.535 46.2734 66.538 58.9114 58.0426 73.524C64.9575 70.1671 66.7356 62.2683 65.155 57.1342C63.1794 49.8278 57.6474 45.8785 52.7082 45.681C46.386 45.4835 31.766 47.0633 30.383 60.4911Z" fill="url(#paint16_linear_12_3459)"/>
<defs>
<linearGradient id="paint0_linear_12_3459" x1="47.0349" y1="110.734" x2="40.1514" y2="132.402" gradientUnits="userSpaceOnUse">
<stop stop-color="#99E8FF"/>
<stop offset="0.2786" stop-color="#96E6FF"/>
<stop offset="0.4778" stop-color="#8DE0FF"/>
<stop offset="0.6522" stop-color="#7DD5FF"/>
<stop offset="0.8123" stop-color="#67C6FF"/>
<stop offset="0.9614" stop-color="#4BB3FF"/>
<stop offset="1" stop-color="#42ADFF"/>
</linearGradient>
<linearGradient id="paint1_linear_12_3459" x1="42.7902" y1="122.051" x2="38.7006" y2="129.823" gradientUnits="userSpaceOnUse">
<stop stop-color="white" stop-opacity="0.11"/>
<stop offset="1" stop-color="white"/>
</linearGradient>
<linearGradient id="paint2_linear_12_3459" x1="54.8322" y1="136.856" x2="48.5195" y2="156.728" gradientUnits="userSpaceOnUse">
<stop stop-color="#99E8FF"/>
<stop offset="0.2786" stop-color="#96E6FF"/>
<stop offset="0.4778" stop-color="#8DE0FF"/>
<stop offset="0.6522" stop-color="#7DD5FF"/>
<stop offset="0.8123" stop-color="#67C6FF"/>
<stop offset="0.9614" stop-color="#4BB3FF"/>
<stop offset="1" stop-color="#42ADFF"/>
</linearGradient>
<linearGradient id="paint3_linear_12_3459" x1="50.8866" y1="147.268" x2="47.1999" y2="154.387" gradientUnits="userSpaceOnUse">
<stop stop-color="white" stop-opacity="0.11"/>
<stop offset="1" stop-color="white"/>
</linearGradient>
<linearGradient id="paint4_linear_12_3459" x1="83.6149" y1="136.856" x2="77.3018" y2="156.729" gradientUnits="userSpaceOnUse">
<stop stop-color="#99E8FF"/>
<stop offset="0.2786" stop-color="#96E6FF"/>
<stop offset="0.4778" stop-color="#8DE0FF"/>
<stop offset="0.6522" stop-color="#7DD5FF"/>
<stop offset="0.8123" stop-color="#67C6FF"/>
<stop offset="0.9614" stop-color="#4BB3FF"/>
<stop offset="1" stop-color="#42ADFF"/>
</linearGradient>
<linearGradient id="paint5_linear_12_3459" x1="79.7016" y1="147.268" x2="76.0016" y2="154.368" gradientUnits="userSpaceOnUse">
<stop stop-color="white" stop-opacity="0.11"/>
<stop offset="1" stop-color="white"/>
</linearGradient>
<linearGradient id="paint6_linear_12_3459" x1="74.3657" y1="111.508" x2="68.0532" y2="131.379" gradientUnits="userSpaceOnUse">
<stop stop-color="#99E8FF"/>
<stop offset="0.2786" stop-color="#96E6FF"/>
<stop offset="0.4778" stop-color="#8DE0FF"/>
<stop offset="0.6522" stop-color="#7DD5FF"/>
<stop offset="0.8123" stop-color="#67C6FF"/>
<stop offset="0.9614" stop-color="#4BB3FF"/>
<stop offset="1" stop-color="#42ADFF"/>
</linearGradient>
<linearGradient id="paint7_linear_12_3459" x1="70.4457" y1="121.992" x2="66.759" y2="129.111" gradientUnits="userSpaceOnUse">
<stop stop-color="white" stop-opacity="0.11"/>
<stop offset="1" stop-color="white"/>
</linearGradient>
<linearGradient id="paint8_linear_12_3459" x1="101.212" y1="111.51" x2="94.8999" y2="131.379" gradientUnits="userSpaceOnUse">
<stop stop-color="#99E8FF"/>
<stop offset="0.2786" stop-color="#96E6FF"/>
<stop offset="0.4778" stop-color="#8DE0FF"/>
<stop offset="0.6522" stop-color="#7DD5FF"/>
<stop offset="0.8123" stop-color="#67C6FF"/>
<stop offset="0.9614" stop-color="#4BB3FF"/>
<stop offset="1" stop-color="#42ADFF"/>
</linearGradient>
<linearGradient id="paint9_linear_12_3459" x1="97.2851" y1="121.992" x2="93.5851" y2="129.092" gradientUnits="userSpaceOnUse">
<stop stop-color="white" stop-opacity="0.11"/>
<stop offset="1" stop-color="white"/>
</linearGradient>
<radialGradient id="paint10_radial_12_3459" cx="0" cy="0" r="1" gradientUnits="userSpaceOnUse" gradientTransform="translate(64.2055 52.6362) rotate(-18.0441) scale(49.8213 49.8009)">
<stop stop-color="#FFCA00"/>
<stop offset="0.4146" stop-color="#FFC800"/>
<stop offset="0.6041" stop-color="#FFC000"/>
<stop offset="0.7477" stop-color="#FFB400"/>
<stop offset="0.8682" stop-color="#FEA200"/>
<stop offset="0.9732" stop-color="#FE8A00"/>
<stop offset="1" stop-color="#FE8300"/>
</radialGradient>
<linearGradient id="paint11_linear_12_3459" x1="74.8817" y1="51.8628" x2="29.0312" y2="85.6744" gradientUnits="userSpaceOnUse">
<stop stop-color="#FFC801" stop-opacity="0.16"/>
<stop offset="1" stop-color="#FFC801"/>
</linearGradient>
<linearGradient id="paint12_linear_12_3459" x1="69.994" y1="55.4399" x2="69.994" y2="105.672" gradientUnits="userSpaceOnUse">
<stop stop-color="#99E8FF"/>
<stop offset="0.2786" stop-color="#96E6FF"/>
<stop offset="0.4778" stop-color="#8DE0FF"/>
<stop offset="0.6522" stop-color="#7DD5FF"/>
<stop offset="0.8123" stop-color="#67C6FF"/>
<stop offset="0.9614" stop-color="#4BB3FF"/>
<stop offset="1" stop-color="#42ADFF"/>
</linearGradient>
<linearGradient id="paint13_linear_12_3459" x1="20.3046" y1="72.6579" x2="14.8145" y2="89.3601" gradientUnits="userSpaceOnUse">
<stop stop-color="white" stop-opacity="0.11"/>
<stop offset="1" stop-color="white"/>
</linearGradient>
<linearGradient id="paint14_linear_12_3459" x1="90.8363" y1="64.5711" x2="85.2622" y2="81.3867" gradientUnits="userSpaceOnUse">
<stop stop-color="white" stop-opacity="0.11"/>
<stop offset="1" stop-color="white"/>
</linearGradient>
<linearGradient id="paint15_linear_12_3459" x1="124.238" y1="63.7472" x2="117.878" y2="83.042" gradientUnits="userSpaceOnUse">
<stop stop-color="white" stop-opacity="0.11"/>
<stop offset="1" stop-color="white"/>
</linearGradient>
<linearGradient id="paint16_linear_12_3459" x1="54.0875" y1="47.3371" x2="45.865" y2="72.553" gradientUnits="userSpaceOnUse">
<stop stop-color="white" stop-opacity="0.11"/>
<stop offset="1" stop-color="white"/>
</linearGradient>
</defs>
</svg>
