<svg width="196" height="174" viewBox="0 0 196 174" fill="none" xmlns="http://www.w3.org/2000/svg">
<path d="M174.311 76.5786C152.129 83.7629 128.303 71.6801 120.909 49.6373C114.501 30.2069 123.21 9.63355 140.462 0C136.355 0.326561 132.247 1.14296 128.139 2.44921C100.699 11.4296 85.5821 40.6568 94.6193 68.088C103.656 95.3558 133.068 110.378 160.673 101.397C179.733 95.1925 192.878 79.191 196 60.7403C190.742 67.7614 183.348 73.4762 174.311 76.5786Z" fill="url(#paint0_radial_8013_836)"/>
<path d="M158.208 94.3761C134.547 102.05 108.914 89.1512 101.192 65.6388C95.2764 47.5146 101.685 28.2475 115.651 16.8179C110.886 27.5944 110.065 40.0037 114.008 51.7599C122.388 77.5582 150.321 91.6004 176.282 83.273C171.517 88.3347 165.273 92.0902 158.208 94.3761Z" fill="url(#paint1_linear_8013_836)"/>
<path d="M126.783 73.0506C125.043 49.0383 104.696 30 80 30C55.1304 30 34.7826 49.0383 33.2174 73.0506C14.7826 73.9081 0 89.0016 0 107.525C0 126.564 15.6522 142 34.9565 142H125.043C144.348 142 160 126.564 160 107.525C160 89.0016 145.217 73.9081 126.783 73.0506Z" fill="url(#paint2_radial_8013_836)"/>
<path d="M79.8261 77.3385C66.6087 66.876 61.5652 50.7535 68.3478 41.4916C75.1304 32.2298 91.4783 33.2588 104.522 43.7213C117.739 54.1838 122.783 70.3063 116 79.5682C109.217 89.0016 93.0435 87.9725 79.8261 77.3385Z" fill="url(#paint3_radial_8013_836)"/>
<path opacity="0.4" d="M126.956 108.554C116.522 100.322 112.522 87.6294 117.913 80.4257C123.304 73.222 136 73.9081 146.435 82.3124C156.87 90.5452 160.87 103.237 155.478 110.441C150.087 117.645 137.391 116.787 126.956 108.554Z" fill="url(#paint4_radial_8013_836)"/>
<path opacity="0.2" d="M24.8695 109.755C17.2173 97.9204 8.34775 92.2604 5.0434 97.0628C1.73905 101.865 5.21731 115.244 12.8695 126.907C20.5217 138.741 29.3912 144.401 32.6956 139.599C35.9999 134.796 32.5216 121.418 24.8695 109.755Z" fill="url(#paint5_radial_8013_836)"/>
<path d="M143.093 163.332L139.559 161.523L140.667 160.966C141.563 160.502 141.827 159.528 141.352 158.786C140.825 158.044 139.717 157.765 138.873 158.183L135.972 159.667L133.282 158.322C133.388 157.905 133.441 157.441 133.441 157.023C133.441 156.559 133.388 156.142 133.282 155.724L135.972 154.379L138.873 155.864C139.137 156.003 139.454 156.095 139.77 156.095C140.403 156.095 141.036 155.817 141.352 155.307C141.88 154.565 141.563 153.544 140.667 153.127L139.559 152.57L143.093 150.761C143.937 150.297 144.253 149.323 143.779 148.581C143.251 147.793 142.144 147.561 141.3 147.978L137.766 149.787V148.674C137.766 147.793 136.974 147.097 135.972 147.097C134.97 147.097 134.179 147.793 134.179 148.674V151.643L131.489 152.988C130.751 152.385 129.854 151.921 128.904 151.643V148.906L131.805 147.422C132.702 146.958 132.966 145.984 132.491 145.241C131.964 144.453 130.856 144.221 130.012 144.638L128.904 145.195V141.577C128.904 140.696 128.113 140 127.111 140C126.109 140 125.318 140.696 125.318 141.577V145.195L124.21 144.638C123.366 144.175 122.206 144.453 121.731 145.241C121.204 145.984 121.52 147.004 122.417 147.422L125.318 148.906V151.643C124.316 151.921 123.472 152.338 122.733 152.988L120.043 151.596V148.628C120.043 147.746 119.252 147.05 118.25 147.05C117.248 147.05 116.456 147.746 116.456 148.628V149.741L112.923 147.932C112.026 147.468 110.918 147.746 110.443 148.535C109.916 149.277 110.232 150.297 111.129 150.715L114.663 152.524L113.555 153.08C112.712 153.544 112.395 154.518 112.87 155.261C113.186 155.771 113.819 156.049 114.452 156.049C114.769 156.049 115.085 156.003 115.349 155.817L118.25 154.333L120.94 155.678C120.834 156.095 120.729 156.559 120.729 156.977C120.729 157.441 120.782 157.858 120.94 158.276L118.039 159.667L115.138 158.183C114.241 157.719 113.134 157.997 112.659 158.786C112.131 159.528 112.448 160.548 113.344 160.966L114.452 161.523L110.918 163.332C110.022 163.795 109.758 164.769 110.233 165.512C110.549 166.022 111.182 166.3 111.815 166.3C112.131 166.3 112.448 166.254 112.712 166.068L116.245 164.259V165.372C116.245 166.254 117.037 166.95 118.039 166.95C119.041 166.95 119.885 166.254 119.885 165.372V162.404L122.575 161.012C123.313 161.615 124.21 162.079 125.159 162.357V165.094L122.258 166.578C121.362 167.042 121.098 168.016 121.573 168.759C122.1 169.547 123.208 169.779 124.052 169.362L125.159 168.805V172.423C125.159 173.304 125.951 174 126.953 174C127.955 174 128.746 173.304 128.746 172.423V168.805L129.854 169.362C130.118 169.501 130.434 169.593 130.751 169.593C131.383 169.593 132.016 169.315 132.333 168.805C132.86 168.063 132.544 167.042 131.647 166.625L128.746 165.141V162.404C129.748 162.126 130.592 161.708 131.331 161.059L134.021 162.404V165.372C134.021 166.254 134.812 166.95 135.814 166.95C136.816 166.95 137.607 166.254 137.607 165.372V164.306L141.141 166.115C141.405 166.254 141.722 166.347 142.038 166.347C142.671 166.347 143.304 166.068 143.62 165.558C144.253 164.769 143.937 163.795 143.093 163.332ZM126.953 159.435C125.423 159.435 124.157 158.322 124.157 156.977C124.157 155.632 125.423 154.518 126.953 154.518C128.482 154.518 129.748 155.632 129.748 156.977C129.748 158.368 128.482 159.435 126.953 159.435Z" fill="url(#paint6_radial_8013_836)"/>
<path d="M92.1326 146.408L84.8568 142.577L87.1373 141.398C88.9834 140.416 89.5264 138.353 88.549 136.782C87.4631 135.21 85.1826 134.621 83.4451 135.505L77.4724 138.648L71.9342 135.799C72.1513 134.915 72.26 133.933 72.26 133.049C72.26 132.067 72.1513 131.183 71.9342 130.299L77.4724 127.45L83.4451 130.593C83.9881 130.888 84.6396 131.085 85.2912 131.085C86.5943 131.085 87.8975 130.495 88.549 129.415C89.635 127.843 88.9834 125.682 87.1373 124.798L84.8568 123.619L92.1326 119.789C93.8701 118.806 94.5216 116.744 93.5443 115.172C92.4584 113.502 90.1779 113.011 88.4404 113.895L81.1646 117.726V115.368C81.1646 113.502 79.5357 112.029 77.4724 112.029C75.4092 112.029 73.7803 113.502 73.7803 115.368V121.655L68.242 124.503C66.7217 123.226 64.8756 122.244 62.9209 121.655V115.859L68.8935 112.716C70.7396 111.734 71.2826 109.671 70.3053 108.1C69.2193 106.43 66.9389 105.939 65.2014 106.823L62.9209 108.001V100.34C62.9209 98.4734 61.292 97 59.2287 97C57.1654 97 55.5365 98.4734 55.5365 100.34V108.001L53.256 106.823C51.5185 105.84 49.1295 106.43 48.1521 108.1C47.0662 109.671 47.7177 111.832 49.5638 112.716L55.5365 115.859V121.655C53.4732 122.244 51.7357 123.128 50.2154 124.503L44.6771 121.557V115.27C44.6771 113.404 43.0482 111.93 40.9849 111.93C38.9216 111.93 37.2927 113.404 37.2927 115.27V117.628L30.017 113.797C28.1709 112.814 25.8904 113.404 24.9131 115.074C23.8271 116.645 24.4787 118.806 26.3248 119.69L33.6006 123.521L31.3201 124.7C29.5826 125.682 28.931 127.745 29.9084 129.317C30.5599 130.397 31.8631 130.986 33.1662 130.986C33.8178 130.986 34.4693 130.888 35.0123 130.495L40.9849 127.352L46.5232 130.201C46.306 131.085 46.0889 132.067 46.0889 132.951C46.0889 133.933 46.1974 134.817 46.5232 135.701L40.5506 138.648L34.5779 135.505C32.7318 134.522 30.4513 135.112 29.474 136.782C28.388 138.353 29.0396 140.514 30.8857 141.398L33.1662 142.577L25.8904 146.408C24.0443 147.39 23.5014 149.453 24.4787 151.025C25.1303 152.105 26.4334 152.694 27.7365 152.694C28.3881 152.694 29.0396 152.596 29.5826 152.203L36.8584 148.372V150.73C36.8584 152.596 38.4873 154.07 40.5506 154.07C42.6138 154.07 44.3513 152.596 44.3513 150.73V144.443L49.8896 141.497C51.4099 142.774 53.256 143.756 55.2107 144.345V150.141L49.2381 153.284C47.392 154.266 46.849 156.329 47.8264 157.9C48.9123 159.57 51.1927 160.061 52.9302 159.177L55.2107 157.999V165.66C55.2107 167.527 56.8396 169 58.9029 169C60.9662 169 62.5951 167.527 62.5951 165.66V157.999L64.8756 159.177C65.4185 159.472 66.0701 159.668 66.7217 159.668C68.0248 159.668 69.3279 159.079 69.9795 157.999C71.0654 156.427 70.4138 154.266 68.5677 153.382L62.5951 150.239V144.443C64.6584 143.854 66.3959 142.97 67.9162 141.595L73.4545 144.443V150.73C73.4545 152.596 75.0834 154.07 77.1467 154.07C79.21 154.07 80.8389 152.596 80.8389 150.73V148.471L88.1146 152.301C88.6576 152.596 89.3092 152.793 89.9607 152.793C91.2639 152.793 92.567 152.203 93.2185 151.123C94.5217 149.453 93.8701 147.39 92.1326 146.408ZM58.9029 138.157C55.7537 138.157 53.1474 135.799 53.1474 132.951C53.1474 130.102 55.7537 127.745 58.9029 127.745C62.0521 127.745 64.6584 130.102 64.6584 132.951C64.6584 135.898 62.0521 138.157 58.9029 138.157Z" fill="url(#paint7_radial_8013_836)"/>
<defs>
<radialGradient id="paint0_radial_8013_836" cx="0" cy="0" r="1" gradientUnits="userSpaceOnUse" gradientTransform="translate(141.395 52.6772) rotate(-17.9466) scale(50.8164 50.5581)">
<stop stop-color="#FFCA00"/>
<stop offset="0.4146" stop-color="#FFC800"/>
<stop offset="0.6041" stop-color="#FFC000"/>
<stop offset="0.7477" stop-color="#FFB400"/>
<stop offset="0.8682" stop-color="#FEA200"/>
<stop offset="0.9732" stop-color="#FE8A00"/>
<stop offset="1" stop-color="#FE8300"/>
</radialGradient>
<linearGradient id="paint1_linear_8013_836" x1="152.129" y1="51.7598" x2="105.508" y2="86.3292" gradientUnits="userSpaceOnUse">
<stop stop-color="#FFC801" stop-opacity="0.16"/>
<stop offset="1" stop-color="#FFC801"/>
</linearGradient>
<radialGradient id="paint2_radial_8013_836" cx="0" cy="0" r="1" gradientUnits="userSpaceOnUse" gradientTransform="translate(100.067 53.5777) rotate(180) scale(122.187 88.0273)">
<stop stop-color="white"/>
<stop offset="0.198" stop-color="#D5F3FF"/>
<stop offset="1" stop-color="#85BCF1"/>
</radialGradient>
<radialGradient id="paint3_radial_8013_836" cx="0" cy="0" r="1" gradientUnits="userSpaceOnUse" gradientTransform="translate(92.2429 60.6069) rotate(126.414) scale(20.8408 30.5302)">
<stop stop-color="white"/>
<stop offset="1" stop-color="white" stop-opacity="0"/>
</radialGradient>
<radialGradient id="paint4_radial_8013_836" cx="0" cy="0" r="1" gradientUnits="userSpaceOnUse" gradientTransform="translate(136.69 95.3539) rotate(126.414) scale(16.3781 23.9927)">
<stop stop-color="white"/>
<stop offset="1" stop-color="white" stop-opacity="0"/>
</radialGradient>
<radialGradient id="paint5_radial_8013_836" cx="0" cy="0" r="1" gradientUnits="userSpaceOnUse" gradientTransform="translate(18.8052 118.311) rotate(-25.3997) scale(8.44973 24.3845)">
<stop stop-color="white"/>
<stop offset="1" stop-color="white" stop-opacity="0"/>
</radialGradient>
<radialGradient id="paint6_radial_8013_836" cx="0" cy="0" r="1" gradientUnits="userSpaceOnUse" gradientTransform="translate(138.078 150.201) scale(33.0475 29.0622)">
<stop stop-color="#28CBE9"/>
<stop offset="1" stop-color="#0A4FBB"/>
</radialGradient>
<radialGradient id="paint7_radial_8013_836" cx="0" cy="0" r="1" gradientUnits="userSpaceOnUse" gradientTransform="translate(81.8086 118.603) scale(68.039 61.5434)">
<stop stop-color="#28CBE9"/>
<stop offset="1" stop-color="#0A4FBB"/>
</radialGradient>
</defs>
</svg>
