<svg width="203" height="176" viewBox="0 0 203 176" fill="none" xmlns="http://www.w3.org/2000/svg">
<path d="M145.138 56.9304C130.917 45.2774 125.387 27.6992 132.695 17.6262C140.003 7.55333 157.581 8.54091 171.999 20.1939C186.219 31.8469 191.75 49.4251 184.442 59.498C176.937 69.7684 159.358 68.5834 145.138 56.9304Z" fill="url(#paint0_radial_8013_597)"/>
<path d="M187.593 112.478L172.001 113.572L169.031 128.52L154.182 124.328L146.2 137.453L133.578 128.338L121.512 138L112.788 125.239L98.1242 130.343L94.4118 115.395L78.8196 115.213L80.4902 100.082L65.8261 94.613L72.6941 80.7583L61 70.7319L72.3229 60.1585L64.7124 46.8507L78.8196 40.6526L76.4065 25.5218L91.9987 24.6103L94.9686 9.47954L109.818 13.8547L117.8 0.546929L130.422 9.66185L142.488 0L151.212 12.7609L165.876 7.65656L169.588 22.6051L185.18 22.7873L183.51 38.1004L198.174 43.5694L191.306 57.2418L203 67.2682L191.863 77.8415L199.288 91.1493L185.18 97.3474L187.593 112.478Z" fill="url(#paint1_linear_8013_597)"/>
<path d="M132.5 119C160.943 119 184 96.1665 184 68C184 39.8335 160.943 17 132.5 17C104.057 17 81 39.8335 81 68C81 96.1665 104.057 119 132.5 119Z" fill="url(#paint2_radial_8013_597)"/>
<path opacity="0.4" d="M87.0708 75.1011C89.0459 68.9784 98.5263 71.546 108.599 80.8289C118.475 90.1117 125.19 102.752 123.215 109.073C121.24 115.195 111.759 112.628 101.686 103.345C91.811 93.8644 85.0958 81.4214 87.0708 75.1011Z" fill="url(#paint3_radial_8013_597)"/>
<path d="M129.952 71.8193C128.17 47.3783 107.313 28 82 28C56.5087 28 35.6522 47.3783 34.0478 71.8193C15.1522 72.6922 0 88.0552 0 106.91C0 126.288 16.0435 142 35.8304 142H128.17C147.957 142 164 126.288 164 106.91C164 88.0552 148.848 72.6922 129.952 71.8193Z" fill="url(#paint4_radial_8013_597)"/>
<path d="M81.8216 76.1838C68.2738 65.5345 63.1042 49.1241 70.0564 39.6968C77.0085 30.2696 93.7651 31.317 107.135 41.9663C120.682 52.6157 125.852 69.0261 118.9 78.4533C111.948 88.0552 95.3694 87.0077 81.8216 76.1838Z" fill="url(#paint5_radial_8013_597)"/>
<path opacity="0.4" d="M130.13 107.957C119.435 99.5773 115.335 86.6585 120.861 79.3262C126.387 71.9938 139.4 72.6922 150.095 81.2465C160.791 89.6263 164.891 102.545 159.365 109.877C153.839 117.21 140.826 116.337 130.13 107.957Z" fill="url(#paint6_radial_8013_597)"/>
<path opacity="0.2" d="M25.4915 109.179C17.6481 97.1333 8.55677 91.3722 5.16982 96.2604C1.78286 101.149 5.34808 114.766 13.1916 126.637C21.035 138.683 30.1263 144.444 33.5133 139.556C36.9002 134.668 33.335 121.051 25.4915 109.179Z" fill="url(#paint7_radial_8013_597)"/>
<path d="M145.093 165.332L141.559 163.523L142.667 162.966C143.563 162.502 143.827 161.528 143.352 160.786C142.825 160.044 141.717 159.765 140.873 160.183L137.972 161.667L135.282 160.322C135.388 159.905 135.441 159.441 135.441 159.023C135.441 158.559 135.388 158.142 135.282 157.724L137.972 156.379L140.873 157.864C141.137 158.003 141.454 158.095 141.77 158.095C142.403 158.095 143.036 157.817 143.352 157.307C143.88 156.565 143.563 155.544 142.667 155.127L141.559 154.57L145.093 152.761C145.937 152.297 146.253 151.323 145.779 150.581C145.251 149.793 144.144 149.561 143.3 149.978L139.766 151.787V150.674C139.766 149.793 138.974 149.097 137.972 149.097C136.97 149.097 136.179 149.793 136.179 150.674V153.643L133.489 154.988C132.751 154.385 131.854 153.921 130.904 153.643V150.906L133.805 149.422C134.702 148.958 134.966 147.984 134.491 147.241C133.964 146.453 132.856 146.221 132.012 146.638L130.904 147.195V143.577C130.904 142.696 130.113 142 129.111 142C128.109 142 127.318 142.696 127.318 143.577V147.195L126.21 146.638C125.366 146.175 124.206 146.453 123.731 147.241C123.204 147.984 123.52 149.004 124.417 149.422L127.318 150.906V153.643C126.316 153.921 125.472 154.338 124.733 154.988L122.043 153.596V150.628C122.043 149.746 121.252 149.05 120.25 149.05C119.248 149.05 118.456 149.746 118.456 150.628V151.741L114.923 149.932C114.026 149.468 112.918 149.746 112.443 150.535C111.916 151.277 112.232 152.297 113.129 152.715L116.663 154.524L115.555 155.08C114.712 155.544 114.395 156.518 114.87 157.261C115.186 157.771 115.819 158.049 116.452 158.049C116.769 158.049 117.085 158.003 117.349 157.817L120.25 156.333L122.94 157.678C122.834 158.095 122.729 158.559 122.729 158.977C122.729 159.441 122.782 159.858 122.94 160.276L120.039 161.667L117.138 160.183C116.241 159.719 115.134 159.997 114.659 160.786C114.131 161.528 114.448 162.548 115.344 162.966L116.452 163.523L112.918 165.332C112.022 165.795 111.758 166.769 112.233 167.512C112.549 168.022 113.182 168.3 113.815 168.3C114.131 168.3 114.448 168.254 114.712 168.068L118.245 166.259V167.372C118.245 168.254 119.037 168.95 120.039 168.95C121.041 168.95 121.885 168.254 121.885 167.372V164.404L124.575 163.012C125.313 163.615 126.21 164.079 127.159 164.357V167.094L124.258 168.578C123.362 169.042 123.098 170.016 123.573 170.759C124.1 171.547 125.208 171.779 126.052 171.362L127.159 170.805V174.423C127.159 175.304 127.951 176 128.953 176C129.955 176 130.746 175.304 130.746 174.423V170.805L131.854 171.362C132.118 171.501 132.434 171.593 132.751 171.593C133.383 171.593 134.016 171.315 134.333 170.805C134.86 170.063 134.544 169.042 133.647 168.625L130.746 167.141V164.404C131.748 164.126 132.592 163.708 133.331 163.059L136.021 164.404V167.372C136.021 168.254 136.812 168.95 137.814 168.95C138.816 168.95 139.607 168.254 139.607 167.372V166.306L143.141 168.115C143.405 168.254 143.722 168.347 144.038 168.347C144.671 168.347 145.304 168.068 145.62 167.558C146.253 166.769 145.937 165.795 145.093 165.332ZM128.953 161.435C127.423 161.435 126.157 160.322 126.157 158.977C126.157 157.632 127.423 156.518 128.953 156.518C130.482 156.518 131.748 157.632 131.748 158.977C131.748 160.368 130.482 161.435 128.953 161.435Z" fill="url(#paint8_radial_8013_597)"/>
<path d="M91.1326 146.408L83.8568 142.577L86.1373 141.398C87.9834 140.416 88.5264 138.353 87.549 136.782C86.4631 135.21 84.1826 134.621 82.4451 135.505L76.4724 138.648L70.9342 135.799C71.1513 134.915 71.26 133.933 71.26 133.049C71.26 132.067 71.1513 131.183 70.9342 130.299L76.4724 127.45L82.4451 130.593C82.9881 130.888 83.6396 131.085 84.2912 131.085C85.5943 131.085 86.8975 130.495 87.549 129.415C88.635 127.843 87.9834 125.682 86.1373 124.798L83.8568 123.619L91.1326 119.789C92.8701 118.806 93.5216 116.744 92.5443 115.172C91.4584 113.502 89.1779 113.011 87.4404 113.895L80.1646 117.726V115.368C80.1646 113.502 78.5357 112.029 76.4724 112.029C74.4092 112.029 72.7803 113.502 72.7803 115.368V121.655L67.242 124.503C65.7217 123.226 63.8756 122.244 61.9209 121.655V115.859L67.8935 112.716C69.7396 111.734 70.2826 109.671 69.3053 108.1C68.2193 106.43 65.9389 105.939 64.2014 106.823L61.9209 108.001V100.34C61.9209 98.4734 60.292 97 58.2287 97C56.1654 97 54.5365 98.4734 54.5365 100.34V108.001L52.256 106.823C50.5185 105.84 48.1295 106.43 47.1521 108.1C46.0662 109.671 46.7177 111.832 48.5638 112.716L54.5365 115.859V121.655C52.4732 122.244 50.7357 123.128 49.2154 124.503L43.6771 121.557V115.27C43.6771 113.404 42.0482 111.93 39.9849 111.93C37.9216 111.93 36.2927 113.404 36.2927 115.27V117.628L29.017 113.797C27.1709 112.814 24.8904 113.404 23.9131 115.074C22.8271 116.645 23.4787 118.806 25.3248 119.69L32.6006 123.521L30.3201 124.7C28.5826 125.682 27.931 127.745 28.9084 129.317C29.5599 130.397 30.8631 130.986 32.1662 130.986C32.8178 130.986 33.4693 130.888 34.0123 130.495L39.9849 127.352L45.5232 130.201C45.306 131.085 45.0889 132.067 45.0889 132.951C45.0889 133.933 45.1974 134.817 45.5232 135.701L39.5506 138.648L33.5779 135.505C31.7318 134.522 29.4513 135.112 28.474 136.782C27.388 138.353 28.0396 140.514 29.8857 141.398L32.1662 142.577L24.8904 146.408C23.0443 147.39 22.5014 149.453 23.4787 151.025C24.1303 152.105 25.4334 152.694 26.7365 152.694C27.3881 152.694 28.0396 152.596 28.5826 152.203L35.8584 148.372V150.73C35.8584 152.596 37.4873 154.07 39.5506 154.07C41.6138 154.07 43.3513 152.596 43.3513 150.73V144.443L48.8896 141.497C50.4099 142.774 52.256 143.756 54.2107 144.345V150.141L48.2381 153.284C46.392 154.266 45.849 156.329 46.8264 157.9C47.9123 159.57 50.1927 160.061 51.9302 159.177L54.2107 157.999V165.66C54.2107 167.527 55.8396 169 57.9029 169C59.9662 169 61.5951 167.527 61.5951 165.66V157.999L63.8756 159.177C64.4185 159.472 65.0701 159.668 65.7217 159.668C67.0248 159.668 68.3279 159.079 68.9795 157.999C70.0654 156.427 69.4138 154.266 67.5677 153.382L61.5951 150.239V144.443C63.6584 143.854 65.3959 142.97 66.9162 141.595L72.4545 144.443V150.73C72.4545 152.596 74.0834 154.07 76.1467 154.07C78.21 154.07 79.8389 152.596 79.8389 150.73V148.471L87.1146 152.301C87.6576 152.596 88.3092 152.793 88.9607 152.793C90.2639 152.793 91.567 152.203 92.2185 151.123C93.5217 149.453 92.8701 147.39 91.1326 146.408ZM57.9029 138.157C54.7537 138.157 52.1474 135.799 52.1474 132.951C52.1474 130.102 54.7537 127.745 57.9029 127.745C61.0521 127.745 63.6584 130.102 63.6584 132.951C63.6584 135.898 61.0521 138.157 57.9029 138.157Z" fill="url(#paint9_radial_8013_597)"/>
<defs>
<radialGradient id="paint0_radial_8013_597" cx="0" cy="0" r="1" gradientUnits="userSpaceOnUse" gradientTransform="translate(158.471 38.6085) rotate(126.034) scale(22.7571 33.1982)">
<stop stop-color="white"/>
<stop offset="1" stop-color="white" stop-opacity="0"/>
</radialGradient>
<linearGradient id="paint1_linear_8013_597" x1="196.775" y1="-2.06418" x2="74.4289" y2="137.146" gradientUnits="userSpaceOnUse">
<stop stop-color="#FFBA24"/>
<stop offset="1" stop-color="#FF5500"/>
</linearGradient>
<radialGradient id="paint2_radial_8013_597" cx="0" cy="0" r="1" gradientUnits="userSpaceOnUse" gradientTransform="translate(144.214 35.8992) rotate(180) scale(97.917 96.9663)">
<stop stop-color="#FFF4C3"/>
<stop offset="0.1559" stop-color="#FFE036"/>
<stop offset="1" stop-color="#FA761C"/>
</radialGradient>
<radialGradient id="paint3_radial_8013_597" cx="0" cy="0" r="1" gradientUnits="userSpaceOnUse" gradientTransform="translate(105.114 92.0884) rotate(-136.789) scale(24.7463 10.5107)">
<stop stop-color="white"/>
<stop offset="1" stop-color="white" stop-opacity="0"/>
</radialGradient>
<radialGradient id="paint4_radial_8013_597" cx="0" cy="0" r="1" gradientUnits="userSpaceOnUse" gradientTransform="translate(102.569 51.9987) rotate(180) scale(125.241 89.5992)">
<stop stop-color="white"/>
<stop offset="0.198" stop-color="#D5F3FF"/>
<stop offset="1" stop-color="#85BCF1"/>
</radialGradient>
<radialGradient id="paint5_radial_8013_597" cx="0" cy="0" r="1" gradientUnits="userSpaceOnUse" gradientTransform="translate(94.5488 59.1535) rotate(126.605) scale(21.2655 31.2161)">
<stop stop-color="white"/>
<stop offset="1" stop-color="white" stop-opacity="0"/>
</radialGradient>
<radialGradient id="paint6_radial_8013_597" cx="0" cy="0" r="1" gradientUnits="userSpaceOnUse" gradientTransform="translate(140.108 94.5209) rotate(126.605) scale(16.7118 24.5317)">
<stop stop-color="white"/>
<stop offset="1" stop-color="white" stop-opacity="0"/>
</radialGradient>
<radialGradient id="paint7_radial_8013_597" cx="0" cy="0" r="1" gradientUnits="userSpaceOnUse" gradientTransform="translate(19.2756 117.888) rotate(-25.2448) scale(8.6499 24.8517)">
<stop stop-color="white"/>
<stop offset="1" stop-color="white" stop-opacity="0"/>
</radialGradient>
<radialGradient id="paint8_radial_8013_597" cx="0" cy="0" r="1" gradientUnits="userSpaceOnUse" gradientTransform="translate(140.078 152.201) scale(33.0475 29.0622)">
<stop stop-color="#28CBE9"/>
<stop offset="1" stop-color="#0A4FBB"/>
</radialGradient>
<radialGradient id="paint9_radial_8013_597" cx="0" cy="0" r="1" gradientUnits="userSpaceOnUse" gradientTransform="translate(80.8086 118.603) scale(68.039 61.5434)">
<stop stop-color="#28CBE9"/>
<stop offset="1" stop-color="#0A4FBB"/>
</radialGradient>
</defs>
</svg>
