<svg width="176" height="185" viewBox="0 0 176 185" fill="none" xmlns="http://www.w3.org/2000/svg">
<path d="M163.523 93.7318L150.895 94.6433L148.49 107.1L136.464 103.606L130 114.544L119.778 106.948L110.007 115L102.941 104.366L91.0654 108.62L88.0588 96.1625L75.4314 96.0106L76.7843 83.2497L64.9085 78.8441L70.4706 67.2986L61 58.9432L70.1699 50.1321L64.0065 39.0423L75.4314 33.8771L73.4771 21.2682L86.1046 20.5086L88.5098 7.8996L100.536 11.5456L107 0.455746L117.222 8.05152L126.993 0L134.059 10.6341L145.935 6.38045L148.941 18.8375L161.569 18.9894L160.216 31.7503L172.091 36.1559L166.529 47.7015L176 56.0568L166.98 64.8679L172.993 75.9577L161.569 81.1229L163.523 93.7318Z" fill="url(#paint0_linear_8013_938)"/>
<path d="M118.576 100.568C142.071 100.568 161.118 81.3198 161.118 57.576C161.118 33.8321 142.071 14.5839 118.576 14.5839C95.0801 14.5839 76.0332 33.8321 76.0332 57.576C76.0332 81.3198 95.0801 100.568 118.576 100.568Z" fill="url(#paint1_radial_8013_938)"/>
<path d="M125.039 53.0185C114.215 44.0555 110.006 30.535 115.568 22.7873C121.13 15.0396 134.509 15.7992 145.483 24.7622C156.307 33.7252 160.516 47.2457 154.954 54.9934C149.241 62.893 135.862 61.9815 125.039 53.0185Z" fill="url(#paint2_radial_8013_938)"/>
<path opacity="0.4" d="M80.8433 66.9947C82.3466 62.2853 89.5623 64.2602 97.229 71.4003C104.745 78.5403 109.856 88.2629 108.353 93.1242C106.85 97.8336 99.6342 95.8587 91.9675 88.7186C84.4512 81.4267 79.3401 71.856 80.8433 66.9947Z" fill="url(#paint3_radial_8013_938)"/>
<path d="M83.137 148.869H81.7091H76.156L87.5795 127.647C88.0554 126.738 88.5314 125.676 88.6901 124.615C90.118 118.097 85.8342 111.579 78.8532 110.214C72.0309 108.85 65.2085 112.943 63.7806 119.613L56.165 153.72L56.0064 154.781C55.8477 155.236 55.8477 155.842 55.8477 156.297C55.8477 160.39 59.3382 163.725 63.622 163.725H72.0309L67.4297 181.915C67.2711 182.522 67.5884 183.28 68.0644 183.734C68.8577 184.341 69.9683 184.189 70.6029 183.431L88.6901 159.48C89.4834 158.419 89.9593 157.055 89.9593 155.539C89.9593 151.749 86.9448 148.869 83.137 148.869Z" fill="url(#paint4_linear_8013_938)"/>
<path d="M115.662 80.0485C114.076 58.8262 95.5127 42 72.9831 42C50.2949 42 31.7319 58.8262 30.3039 80.0485C13.4861 80.8064 0 94.1461 0 110.518C0 127.344 14.2794 140.987 31.8905 140.987H114.234C131.846 140.987 146.125 127.344 146.125 110.518C145.966 94.1461 132.48 80.8064 115.662 80.0485Z" fill="url(#paint5_radial_8013_938)"/>
<path opacity="0.6" d="M75.839 83.8382C63.781 74.5913 59.1798 60.3421 65.3675 52.1564C71.5552 43.9706 86.4691 44.8802 98.3685 54.127C110.427 63.3739 115.028 77.6231 108.84 85.8088C102.652 93.9945 87.8971 93.085 75.839 83.8382Z" fill="url(#paint6_radial_8013_938)"/>
<path opacity="0.4" d="M115.821 111.276C106.302 103.999 102.653 92.7818 107.571 86.4152C112.489 80.0485 124.071 80.6548 133.591 88.0826C143.111 95.3588 146.76 106.576 141.841 112.943C136.923 119.31 125.341 118.703 115.821 111.276Z" fill="url(#paint7_radial_8013_938)"/>
<path opacity="0.2" d="M22.6886 112.337C15.7076 101.877 7.61594 96.8747 4.60142 101.119C1.5869 105.364 4.76008 117.187 11.7411 127.495C18.7221 137.955 26.8137 142.957 29.8282 138.713C32.8428 134.62 29.6696 122.796 22.6886 112.337Z" fill="url(#paint8_radial_8013_938)"/>
<path d="M36.1746 160.845C34.4293 163.876 30.4628 164.786 27.2896 163.119C24.1164 161.451 23.1645 157.661 24.9097 154.63C26.655 151.598 37.9198 145.686 37.9198 145.686C37.9198 145.686 37.9198 157.813 36.1746 160.845Z" fill="url(#paint9_radial_8013_938)"/>
<path d="M25.0683 159.784C24.1163 157.207 24.5922 154.63 26.4962 153.872C28.2414 153.114 30.4626 154.63 31.5733 157.055C32.5252 159.632 31.8905 162.209 30.1453 162.967C28.4 163.725 26.0202 162.361 25.0683 159.784Z" fill="url(#paint10_radial_8013_938)"/>
<path d="M46.6457 179.035C44.9004 182.067 40.934 182.977 37.7608 181.309C34.5876 179.642 33.6357 175.852 35.3809 172.82C37.1261 169.788 48.3909 163.876 48.3909 163.876C48.3909 163.876 48.5496 176.003 46.6457 179.035Z" fill="url(#paint11_radial_8013_938)"/>
<path d="M35.5394 177.974C34.5875 175.397 35.0635 172.82 36.9674 172.062C38.7127 171.304 40.9338 172.82 42.0444 175.246C42.9964 177.823 42.3618 180.4 40.6166 181.157C38.8713 181.915 36.6501 180.551 35.5394 177.974Z" fill="url(#paint12_radial_8013_938)"/>
<path d="M120.263 160.845C118.518 163.876 114.552 164.786 111.378 163.119C108.205 161.451 107.253 157.661 108.999 154.63C110.744 151.598 122.009 145.686 122.009 145.686C122.009 145.686 122.167 157.813 120.263 160.845Z" fill="url(#paint13_radial_8013_938)"/>
<path d="M109.157 159.784C108.205 157.207 108.681 154.63 110.585 153.872C112.33 153.114 114.552 154.63 115.662 157.055C116.614 159.632 115.979 162.209 114.234 162.967C112.489 163.725 110.268 162.361 109.157 159.784Z" fill="url(#paint14_radial_8013_938)"/>
<path d="M102.176 179.035C100.431 182.067 96.4647 182.977 93.2915 181.309C90.1184 179.642 89.1664 175.852 90.9117 172.82C92.6569 169.788 103.922 163.876 103.922 163.876C103.922 163.876 104.08 176.003 102.176 179.035Z" fill="url(#paint15_radial_8013_938)"/>
<path d="M91.0702 177.974C90.1183 175.397 90.5943 172.82 92.4982 172.062C94.2434 171.304 96.4646 172.82 97.5752 175.246C98.5271 177.823 97.8926 180.4 96.1473 181.157C94.4021 181.915 92.1808 180.551 91.0702 177.974Z" fill="url(#paint16_radial_8013_938)"/>
<defs>
<linearGradient id="paint0_linear_8013_938" x1="170.959" y1="-1.72424" x2="68.6699" y2="111.385" gradientUnits="userSpaceOnUse">
<stop stop-color="#FFBA24"/>
<stop offset="1" stop-color="#FF5500"/>
</linearGradient>
<radialGradient id="paint1_radial_8013_938" cx="0" cy="0" r="1" gradientUnits="userSpaceOnUse" gradientTransform="translate(128.252 30.5113) rotate(180) scale(80.886 81.7408)">
<stop stop-color="#FFF4C3"/>
<stop offset="0.1559" stop-color="#FFE036"/>
<stop offset="1" stop-color="#FA761C"/>
</radialGradient>
<radialGradient id="paint2_radial_8013_938" cx="0" cy="0" r="1" gradientUnits="userSpaceOnUse" gradientTransform="translate(135.187 38.9219) rotate(125.748) scale(17.4407 25.3593)">
<stop stop-color="white"/>
<stop offset="1" stop-color="white" stop-opacity="0"/>
</radialGradient>
<radialGradient id="paint3_radial_8013_938" cx="0" cy="0" r="1" gradientUnits="userSpaceOnUse" gradientTransform="translate(94.5764 80.0568) rotate(-136.489) scale(18.9284 8.04447)">
<stop stop-color="white"/>
<stop offset="1" stop-color="white" stop-opacity="0"/>
</radialGradient>
<linearGradient id="paint4_linear_8013_938" x1="61.9884" y1="182.781" x2="78.8137" y2="127.328" gradientUnits="userSpaceOnUse">
<stop offset="0.1559" stop-color="#FFE036"/>
<stop offset="1" stop-color="#FA761C"/>
</linearGradient>
<radialGradient id="paint5_radial_8013_938" cx="0" cy="0" r="1" gradientUnits="userSpaceOnUse" gradientTransform="translate(91.3223 62.7453) rotate(180) scale(111.468 77.798)">
<stop stop-color="#B6CCD2"/>
<stop offset="0.198" stop-color="#97B6BE"/>
<stop offset="1" stop-color="#5D87B4"/>
</radialGradient>
<radialGradient id="paint6_radial_8013_938" cx="0" cy="0" r="1" gradientUnits="userSpaceOnUse" gradientTransform="translate(87.1822 68.9528) rotate(127.286) scale(18.6299 27.5355)">
<stop stop-color="white"/>
<stop offset="1" stop-color="white" stop-opacity="0"/>
</radialGradient>
<radialGradient id="paint7_radial_8013_938" cx="0" cy="0" r="1" gradientUnits="userSpaceOnUse" gradientTransform="translate(124.733 99.6629) rotate(127.286) scale(14.6407 21.6394)">
<stop stop-color="white"/>
<stop offset="1" stop-color="white" stop-opacity="0"/>
</radialGradient>
<radialGradient id="paint8_radial_8013_938" cx="0" cy="0" r="1" gradientUnits="userSpaceOnUse" gradientTransform="translate(17.1664 119.951) rotate(-24.7027) scale(7.66443 21.6728)">
<stop stop-color="white"/>
<stop offset="1" stop-color="white" stop-opacity="0"/>
</radialGradient>
<radialGradient id="paint9_radial_8013_938" cx="0" cy="0" r="1" gradientUnits="userSpaceOnUse" gradientTransform="translate(27.4624 159.378) rotate(28.8826) scale(15.5212 15.1597)">
<stop stop-color="#D0F2FF"/>
<stop offset="0.198" stop-color="#D5F3FF"/>
<stop offset="1" stop-color="#85BCF1"/>
</radialGradient>
<radialGradient id="paint10_radial_8013_938" cx="0" cy="0" r="1" gradientUnits="userSpaceOnUse" gradientTransform="translate(28.2918 158.401) rotate(156.991) scale(3.48088 4.92223)">
<stop stop-color="white"/>
<stop offset="1" stop-color="white" stop-opacity="0"/>
</radialGradient>
<radialGradient id="paint11_radial_8013_938" cx="0" cy="0" r="1" gradientUnits="userSpaceOnUse" gradientTransform="translate(37.9781 177.637) rotate(28.8828) scale(15.5227 15.1612)">
<stop stop-color="#D0F2FF"/>
<stop offset="0.198" stop-color="#D5F3FF"/>
<stop offset="1" stop-color="#85BCF1"/>
</radialGradient>
<radialGradient id="paint12_radial_8013_938" cx="0" cy="0" r="1" gradientUnits="userSpaceOnUse" gradientTransform="translate(38.8075 176.66) rotate(156.991) scale(3.4811 4.92255)">
<stop stop-color="white"/>
<stop offset="1" stop-color="white" stop-opacity="0"/>
</radialGradient>
<radialGradient id="paint13_radial_8013_938" cx="0" cy="0" r="1" gradientUnits="userSpaceOnUse" gradientTransform="translate(111.588 159.378) rotate(28.8826) scale(15.5199 15.1585)">
<stop stop-color="#D0F2FF"/>
<stop offset="0.198" stop-color="#D5F3FF"/>
<stop offset="1" stop-color="#85BCF1"/>
</radialGradient>
<radialGradient id="paint14_radial_8013_938" cx="0" cy="0" r="1" gradientUnits="userSpaceOnUse" gradientTransform="translate(112.416 158.401) rotate(156.991) scale(3.48088 4.92223)">
<stop stop-color="white"/>
<stop offset="1" stop-color="white" stop-opacity="0"/>
</radialGradient>
<radialGradient id="paint15_radial_8013_938" cx="0" cy="0" r="1" gradientUnits="userSpaceOnUse" gradientTransform="translate(93.4727 177.637) rotate(28.8828) scale(15.5211 15.1597)">
<stop stop-color="#D0F2FF"/>
<stop offset="0.198" stop-color="#D5F3FF"/>
<stop offset="1" stop-color="#85BCF1"/>
</radialGradient>
<radialGradient id="paint16_radial_8013_938" cx="0" cy="0" r="1" gradientUnits="userSpaceOnUse" gradientTransform="translate(94.3016 176.659) rotate(156.991) scale(3.48132 4.92287)">
<stop stop-color="white"/>
<stop offset="1" stop-color="white" stop-opacity="0"/>
</radialGradient>
</defs>
</svg>
